<svg xmlns="http://www.w3.org/2000/svg" version="1.1" width="3300" height="2000"><g id="Notes"><style>
    text {
      font-family: monospace;
      text-anchor: middle;
    }
    text.emphasis {
      font-weight:bold;
    }
    text.lanchor {
      text-anchor: start;
    }
  </style><rect height="2200" id="artboard" fill="white" width="3300" x="0" y="0"/><line id="" style="fill:none;stroke:black;stroke-width:0.5;" x1="263" x2="3036" y1="292" y2="292"/><text class="lanchor emphasis" transform="matrix(1 0 0 1 263 322)">Weight/Scale Variations</text><text transform="matrix(1 0 0 1 559.711 322)">Ultralight</text><text transform="matrix(1 0 0 1 856.422 322)">Thin</text><text transform="matrix(1 0 0 1 1153.13 322)">Light</text><text transform="matrix(1 0 0 1 1449.84 322)">Regular</text><text transform="matrix(1 0 0 1 1746.56 322)">Medium</text><text transform="matrix(1 0 0 1 2043.27 322)">Semibold</text><text transform="matrix(1 0 0 1 2339.98 322)">Bold</text><text transform="matrix(1 0 0 1 2636.69 322)">Heavy</text><text transform="matrix(1 0 0 1 2933.4 322)">Black</text><text id="template-version" style="text-anchor: end;" transform="matrix(1 0 0 1 3036 1933)">Template v.1.0</text><text class="lanchor" transform="matrix(1 0 0 1 263 726)">Small</text><text class="lanchor" transform="matrix(1 0 0 1 263 1156)">Medium</text><text class="lanchor" transform="matrix(1 0 0 1 263 1586)">Large</text></g><g id="Guides"><g id="H-reference" style="fill:#27AAE1;stroke:none;" transform="matrix(1 0 0 1 339 696)"><path d="M 54.9316 0 L 57.666 0 L 30.5664 -70.459 L 28.0762 -70.459 L 0.976562 0 L 3.66211 0 L 12.9395 -24.4629 L 45.7031 -24.4629 Z M 29.1992 -67.0898 L 29.4434 -67.0898 L 44.8242 -26.709 L 13.8184 -26.709 Z"/></g><line id="Baseline-S" style="fill:none;stroke:#27AAE1;opacity:1;stroke-width:0.577;" x1="263" x2="3036" y1="696" y2="696"/><line id="Capline-S" style="fill:none;stroke:#27AAE1;opacity:1;stroke-width:0.577;" x1="263" x2="3036" y1="625.541" y2="625.541"/><g id="H-reference" style="fill:#27AAE1;stroke:none;" transform="matrix(1 0 0 1 339 1126)"><path d="M 54.9316 0 L 57.666 0 L 30.5664 -70.459 L 28.0762 -70.459 L 0.976562 0 L 3.66211 0 L 12.9395 -24.4629 L 45.7031 -24.4629 Z M 29.1992 -67.0898 L 29.4434 -67.0898 L 44.8242 -26.709 L 13.8184 -26.709 Z"/></g><line id="Baseline-M" style="fill:none;stroke:#27AAE1;opacity:1;stroke-width:0.577;" x1="263" x2="3036" y1="1126" y2="1126"/><line id="Capline-M" style="fill:none;stroke:#27AAE1;opacity:1;stroke-width:0.577;" x1="263" x2="3036" y1="1055.54" y2="1055.54"/><g id="H-reference" style="fill:#27AAE1;stroke:none;" transform="matrix(1 0 0 1 339 1556)"><path d="M 54.9316 0 L 57.666 0 L 30.5664 -70.459 L 28.0762 -70.459 L 0.976562 0 L 3.66211 0 L 12.9395 -24.4629 L 45.7031 -24.4629 Z M 29.1992 -67.0898 L 29.4434 -67.0898 L 44.8242 -26.709 L 13.8184 -26.709 Z"/></g><line id="Baseline-L" style="fill:none;stroke:#27AAE1;opacity:1;stroke-width:0.577;" x1="263" x2="3036" y1="1556" y2="1556"/><line id="Capline-L" style="fill:none;stroke:#27AAE1;opacity:1;stroke-width:0.577;" x1="263" x2="3036" y1="1485.54" y2="1485.54"/><rect height="119.336" id="left-margin" style="fill:darkred;stroke:none;opacity:0.4;" width="12.4512" x="1394.06" y="1030.79"/><rect height="119.336" id="right-margin" style="fill:darkgreen;stroke:none;opacity:0.4;" width="12.4512" x="1502.5112" y="1030.79"/><rect x="1406.5112" y="1045" width="96" height="96" fill="none" stroke="blue" stroke-dasharray="5"/><rect x="1394.06" y="1030.79" width="120.9024" height="119.336" fill="none" stroke="blue"/></g><g id="Symbols"><g id="Bold-L" transform="matrix(1 0 0 1 2266 1556)"><path d="M815.9250000000001 2986.595 Q686.2413 2986.595 597.89565 2899.1974999999998 Q509.55 2811.7999999999997 509.55 2683.445 V900.02 H322.5 V596.87 H1067.4750000000001 V442.07000000000005 H2025.3 V596.87 H2773.5 V900.02 H2586.4500000000003 V2683.445 Q2586.4500000000003 2809.38125 2496.894975 2897.988125 Q2407.343175 2986.595 2280.0750000000003 2986.595 H815.9250000000001 Z M2280.0750000000003 900.02 H815.9250000000001 V2683.445 Q815.9250000000001 2683.445 815.9250000000001 2683.445 Q815.9250000000001 2683.445 815.9250000000001 2683.445 H2280.0750000000003 Q2280.0750000000003 2683.445 2280.0750000000003 2683.445 Q2280.0750000000003 2683.445 2280.0750000000003 2683.445 V900.02 Z M1141.65 2431.895 H1389.9750000000001 V1145.12 H1141.65 V2431.895 Z M1706.025 2431.895 H1957.575 V1145.12 H1706.025 V2431.895 Z"/></g><g id="Semibold-L" transform="matrix(1 0 0 1 1970.27 1556)"><path d="M827.14155 2951.5424749999997 Q719.1363 2951.5424749999997 644.4872250000001 2877.42875 Q569.8381499999999 2803.31825 569.8381499999999 2696.064425 V888.80345 H406.624125 V633.3254000000001 H1091.310975 V503.761025 H2002.8669 V633.3254000000001 H2689.375875 V888.80345 H2526.1618500000004 V2696.064425 Q2526.1618500000004 2800.8995 2450.3034000000002 2876.2193749999997 Q2374.44495 2951.5424749999997 2268.85845 2951.5424749999997 H827.14155 Z M2268.85845 888.80345 H827.14155 V2696.064425 Q827.14155 2696.064425 827.14155 2696.064425 Q827.14155 2696.064425 827.14155 2696.064425 H2268.85845 Q2268.85845 2696.064425 2268.85845 2696.064425 Q2268.85845 2696.064425 2268.85845 2696.064425 V888.80345 Z M1159.8777 2433.2978749999997 H1384.366725 V1146.522875 H1159.8777 V2433.2978749999997 Z M1711.6332750000001 2433.2978749999997 H1937.9444250000001 V1146.522875 H1711.6332750000001 V2433.2978749999997 Z"/></g><g id="Medium-L" transform="matrix(1 0 0 1 1674.31 1556)"><path d="M835.555575 2925.24905 Q743.810775 2925.24905 679.43655 2861.1038 Q615.0623250000001 2796.955325 615.0623250000001 2705.5298 V880.3894250000001 H469.72769999999997 V660.66695 H1109.1903750000001 V550.03655 H1986.0388500000001 V660.66695 H2626.2723 V880.3894250000001 H2480.937675 V2705.5298 Q2480.937675 2794.536575 2415.354075 2859.894425 Q2349.770475 2925.24905 2260.444425 2925.24905 H835.555575 Z M2260.444425 880.3894250000001 H835.555575 V2705.5298 Q835.555575 2705.5298 835.555575 2705.5298 Q835.555575 2705.5298 835.555575 2705.5298 H2260.444425 Q2260.444425 2705.5298 2260.444425 2705.5298 Q2260.444425 2705.5298 2260.444425 2705.5298 V880.3894250000001 Z M1173.548475 2434.349225 H1380.161325 V1147.5742250000003 H1173.548475 V2434.349225 Z M1715.838675 2434.349225 H1923.2223 V1147.5742250000003 H1715.838675 V2434.349225 Z"/></g><g id="Regular-L" transform="matrix(1 0 0 1 1378.56 1556)"><path d="M841.725 2905.97 Q761.90625 2905.97 705.0656250000001 2849.129375 Q648.225 2792.28875 648.225 2712.47 V874.22 H516.0 V680.72 H1122.3 V583.97 H1973.7 V680.72 H2580.0 V874.22 H2447.775 V2712.47 Q2447.775 2789.87 2389.725 2847.92 Q2331.675 2905.97 2254.275 2905.97 H841.725 Z M2254.275 874.22 H841.725 V2712.47 Q841.725 2712.47 841.725 2712.47 Q841.725 2712.47 841.725 2712.47 H2254.275 Q2254.275 2712.47 2254.275 2712.47 Q2254.275 2712.47 2254.275 2712.47 V874.22 Z M1183.575 2435.12 H1377.075 V1148.3450000000003 H1183.575 V2435.12 Z M1718.925 2435.12 H1912.425 V1148.3450000000003 H1718.925 V2435.12 Z"/></g><g id="Light-L" transform="matrix(1 0 0 1 1082.77 1556)"><path d="M897.5465250000001 2841.466775 Q821.449425 2841.466775 766.469625 2786.4869750000003 Q711.489825 2731.5039500000003 711.489825 2655.4068500000003 V900.2715499999999 H580.503225 V753.9081500000001 H1132.223325 V663.359825 H1963.776675 V753.9081500000001 H2515.496775 V900.2715499999999 H2384.5101750000003 V2655.4068500000003 Q2384.5101750000003 2731.287875 2329.4239500000003 2786.377325 Q2274.3345 2841.466775 2198.4534750000003 2841.466775 H897.5465250000001 Z M2238.15 900.2715499999999 H857.85 V2655.4068500000003 Q857.85 2672.773475 869.63415 2683.938425 Q881.4215250000001 2695.103375 897.5465250000001 2695.103375 H2198.4534750000003 Q2213.340075 2695.103375 2225.743425 2682.700025 Q2238.15 2670.29345 2238.15 2655.4068500000003 V900.2715499999999 Z M1229.4732000000001 2422.71665 H1375.8333750000002 V1169.4332749999999 H1229.4732000000001 V2422.71665 Z M1720.166625 2422.71665 H1866.5268 V1169.4332749999999 H1720.166625 V2422.71665 Z"/></g><g id="Thin-L" transform="matrix(1 0 0 1 787.282 1556)"><path d="M953.358375 2776.97 Q880.982925 2776.97 827.86395 2723.851025 Q774.744975 2670.73205 774.744975 2598.3566 V926.3166500000001 H645.0 V827.0834000000001 H1142.14665 V742.7367500000001 H1953.85335 V827.0834000000001 H2451.0 V926.3166500000001 H2321.255025 V2598.3566 Q2321.255025 2672.715425 2269.12935 2724.844325 Q2217.003675 2776.97 2142.641625 2776.97 H953.358375 Z M2222.025 926.3166500000001 H873.975 V2598.3566 Q873.975 2633.086625 897.5433 2655.4133 Q921.108375 2677.739975 953.358375 2677.739975 H2142.641625 Q2172.4116 2677.739975 2197.2183 2652.933275 Q2222.025 2628.12335 2222.025 2598.3566 V926.3166500000001 Z M1275.361725 2410.3133 H1374.594975 V1190.518325 H1275.361725 V2410.3133 Z M1721.405025 2410.3133 H1820.638275 V1190.518325 H1721.405025 V2410.3133 Z"/></g><g id="Ultralight-L" transform="matrix(1 0 0 1 491.205 1556)"><path d="M986.85 2738.27 Q916.7062500000001 2738.27 864.703125 2686.266875 Q812.7 2634.26375 812.7 2564.12 V941.945 H683.7 V870.995 H1148.1000000000001 V790.37 H1947.9 V870.995 H2412.3 V941.945 H2283.3 V2564.12 Q2283.3 2637.569375 2232.9513 2687.9213 Q2182.599375 2738.27 2109.15 2738.27 H986.85 Z M2212.35 941.945 H883.65 V2564.12 Q883.65 2609.27 914.2875 2638.295 Q944.9250000000001 2667.32 986.85 2667.32 H2109.15 Q2147.85 2667.32 2180.1 2635.07 Q2212.35 2602.82 2212.35 2564.12 V941.945 Z M1302.9 2402.87 H1373.8500000000001 V1203.17 H1302.9 V2402.87 Z M1722.15 2402.87 H1793.1000000000001 V1203.17 H1722.15 V2402.87 Z"/></g><g id="Bold-M" transform="matrix(1 0 0 1 2281.8 1126)"><path d="M1345.0 4754.77 Q1080.0 4754.77 897.5 4572.27 Q715.0 4389.77 715.0 4124.77 V1639.77 H400.0 V1009.77 H1685.0 V694.77 H3105.0 V1009.77 H4400.0 V1639.77 H4085.0 V4124.77 Q4085.0 4389.77 3902.5 4572.27 Q3720.0 4754.77 3455.0 4754.77 H1345.0 Z M3455.0 1639.77 H1345.0 V4124.77 Q1345.0 4124.77 1345.0 4124.77 Q1345.0 4124.77 1345.0 4124.77 H3455.0 Q3455.0 4124.77 3455.0 4124.77 Q3455.0 4124.77 3455.0 4124.77 V1639.77 Z M1710.0 3779.77 H2225.0 V1979.77 H1710.0 V3779.77 Z M2575.0 3779.77 H3090.0 V1979.77 H2575.0 V3779.77 Z"/></g><g id="Semibold-M" transform="matrix(1 0 0 1 1985.97 1126)"><path d="M1368.9099999999999 4680.860000000001 Q1147.385 4680.860000000001 993.145 4526.620000000001 Q838.905 4372.380000000001 838.905 4150.8550000000005 V1615.8600000000001 H573.9 V1085.85 H1734.9950000000001 V820.85 H3059.35 V1085.85 H4226.1 V1615.8600000000001 H3961.0950000000003 V4150.8550000000005 Q3961.0950000000003 4372.380000000001 3806.855 4526.620000000001 Q3652.6150000000002 4680.860000000001 3431.0899999999997 4680.860000000001 H1368.9099999999999 Z M3431.0899999999997 1615.8600000000001 H1368.9099999999999 V4150.8550000000005 Q1368.9099999999999 4150.8550000000005 1368.9099999999999 4150.8550000000005 Q1368.9099999999999 4150.8550000000005 1368.9099999999999 4150.8550000000005 H3431.0899999999997 Q3431.0899999999997 4150.8550000000005 3431.0899999999997 4150.8550000000005 Q3431.0899999999997 4150.8550000000005 3431.0899999999997 4150.8550000000005 V1615.8600000000001 Z M1749.13 3781.9449999999997 H2214.13 V1981.9450000000002 H1749.13 V3781.9449999999997 Z M2585.87 3781.9449999999997 H3050.87 V1981.9450000000002 H2585.87 V3781.9449999999997 Z"/></g><g id="Medium-M" transform="matrix(1 0 0 1 1689.91 1126)"><path d="M1386.85 4625.425 Q1197.935 4625.425 1064.89 4492.380000000001 Q931.845 4359.335000000001 931.845 4170.42 V1597.92 H704.345 V1142.92 H1772.5 V915.42 H3025.11 V1142.92 H4095.6549999999997 V1597.92 H3868.1549999999997 V4170.42 Q3868.1549999999997 4359.335000000001 3735.11 4492.380000000001 Q3602.065 4625.425 3413.15 4625.425 H1386.85 Z M3413.15 1597.92 H1386.85 V4170.42 Q1386.85 4170.42 1386.85 4170.42 Q1386.85 4170.42 1386.85 4170.42 H3413.15 Q3413.15 4170.42 3413.15 4170.42 Q3413.15 4170.42 3413.15 4170.42 V1597.92 Z M1778.48 3783.575 H2205.98 V1983.5750000000003 H1778.48 V3783.575 Z M2594.02 3783.575 H3021.52 V1983.5750000000003 H2594.02 V3783.575 Z"/></g><g id="Regular-M" transform="matrix(1 0 0 1 1394.06 1126)"><path d="M1400.0 4584.77 Q1235.0 4584.77 1117.5 4467.27 Q1000.0 4349.77 1000.0 4184.77 V1584.77 H800.0 V1184.77 H1800.0 V984.77 H3000.0 V1184.77 H4000.0 V1584.77 H3800.0 V4184.77 Q3800.0 4349.77 3682.5 4467.27 Q3565.0 4584.77 3400.0 4584.77 H1400.0 Z M3400.0 1584.77 H1400.0 V4184.77 Q1400.0 4184.77 1400.0 4184.77 Q1400.0 4184.77 1400.0 4184.77 H3400.0 Q3400.0 4184.77 3400.0 4184.77 Q3400.0 4184.77 3400.0 4184.77 V1584.77 Z M1800.0 3784.77 H2200.0 V1984.77 H1800.0 V3784.77 Z M2600.0 3784.77 H3000.0 V1984.77 H2600.0 V3784.77 Z"/></g><g id="Light-M" transform="matrix(1 0 0 1 1098.18 1126)"><path d="M1461.545 4484.765 Q1311.93 4484.765 1205.97 4378.800000000001 Q1100.005 4272.84 1100.005 4123.225 V1584.77 H900.005 V1284.7749999999999 H1800.0 V1107.855 H3000.0 V1284.7749999999999 H3899.995 V1584.77 H3699.995 V4123.225 Q3699.995 4274.765 3594.995 4379.765 Q3489.995 4484.765 3338.455 4484.765 H1461.545 Z M3400.0 1584.77 H1400.0 V4123.225 Q1400.0 4150.150000000001 1417.31 4167.460000000001 Q1434.62 4184.77 1461.545 4184.77 H3338.455 Q3361.535 4184.77 3380.77 4165.540000000001 Q3400.0 4146.305 3400.0 4123.225 V1584.77 Z M1880.7749999999999 3784.77 H2180.77 V1984.77 H1880.7749999999999 V3784.77 Z M2619.23 3784.77 H2919.2250000000004 V1984.77 H2619.23 V3784.77 Z"/></g><g id="Thin-M" transform="matrix(1 0 0 1 802.565 1126)"><path d="M1523.075 4384.77 Q1388.845 4384.77 1294.42 4290.35 Q1200.0 4195.925 1200.0 4061.695 V1584.77 H1000.0 V1384.77 H1800.0 V1230.92 H3000.0 V1384.77 H3800.0 V1584.77 H3600.0 V4061.695 Q3600.0 4199.77 3507.5 4292.27 Q3415.0 4384.77 3276.925 4384.77 H1523.075 Z M3400.0 1584.77 H1400.0 V4061.695 Q1400.0 4115.540000000001 1434.615 4150.155000000001 Q1469.23 4184.77 1523.075 4184.77 H3276.925 Q3323.075 4184.77 3361.54 4146.31 Q3400.0 4107.845 3400.0 4061.695 V1584.77 Z M1961.535 3784.77 H2161.54 V1984.77 H1961.535 V3784.77 Z M2638.46 3784.77 H2838.465 V1984.77 H2638.46 V3784.77 Z"/></g><g id="Ultralight-M" transform="matrix(1 0 0 1 506.415 1126)"><path d="M1560.0 4324.77 Q1435.0 4324.77 1347.5 4237.27 Q1260.0 4149.77 1260.0 4024.77 V1584.77 H1060.0 V1444.77 H1800.0 V1304.77 H3000.0 V1444.77 H3740.0 V1584.77 H3540.0 V4024.77 Q3540.0 4154.77 3455.0 4239.77 Q3370.0 4324.77 3240.0 4324.77 H1560.0 Z M3400.0 1584.77 H1400.0 V4024.77 Q1400.0 4094.77 1445.0 4139.77 Q1490.0 4184.77 1560.0 4184.77 H3240.0 Q3300.0 4184.77 3350.0 4134.77 Q3400.0 4084.77 3400.0 4024.77 V1584.77 Z M2010.0 3784.77 H2150.0 V1984.77 H2010.0 V3784.77 Z M2650.0 3784.77 H2790.0 V1984.77 H2650.0 V3784.77 Z"/></g><g id="Bold-S" transform="matrix(1 0 0 1 2294.23 696)"><path d="M1424.934 4395.794 Q1189.6542 4395.794 1027.9881 4234.1279 Q866.322 4072.4617999999996 866.322 3837.182 V1673.7440000000001 H530.208 V1115.132 H1708.974 V779.018 H2826.198 V1115.132 H4014.432 V1673.7440000000001 H3678.318 V3835.127444 Q3678.318 4073.882 3516.6519000000003 4234.838000000001 Q3354.9858000000004 4395.794 3119.706 4395.794 H1424.934 Z M3119.706 1673.7440000000001 H1424.934 V3837.182 Q1424.934 3837.182 1424.934 3837.182 Q1424.934 3837.182 1424.934 3837.182 H3119.706 Q3119.706 3837.182 3119.706 3837.182 Q3119.706 3837.182 3119.706 3837.182 V1673.7440000000001 Z M1732.644 3548.408 H2182.374 V1957.784 H1732.644 V3548.408 Z M2362.266 3548.408 H2811.996 V1957.784 H2362.266 V3548.408 Z"/></g><g id="Semibold-S" transform="matrix(1 0 0 1 1998.1 696)"><path d="M1447.571988 4325.816012 Q1253.4543179999998 4325.816012 1118.544786 4190.906480000001 Q983.635254 4055.9969479999995 983.635254 3861.879278 V1651.1060120000002 H694.85652 V1187.1645440000002 H1756.3092660000002 V898.3905440000001 H2782.97658 V1187.1645440000002 H3849.78348 V1651.1060120000002 H3561.004746 V3859.824722 Q3561.004746 4057.417148 3426.095214 4191.61658 Q3291.185682 4325.816012 3097.0680119999997 4325.816012 H1447.571988 Z M3097.0680119999997 1651.1060120000002 H1447.571988 V3861.879278 Q1447.571988 3861.879278 1447.571988 3861.879278 Q1447.571988 3861.879278 1447.571988 3861.879278 H3097.0680119999997 Q3097.0680119999997 3861.879278 3097.0680119999997 3861.879278 Q3097.0680119999997 3861.879278 3097.0680119999997 3861.879278 V1651.1060120000002 Z M1769.6922840000002 3550.4672899999996 H2172.082284 V1959.84329 H1769.6922840000002 V3550.4672899999996 Z M2372.557716 3550.4672899999996 H2774.9477159999997 V1959.84329 H2372.557716 V3550.4672899999996 Z"/></g><g id="Medium-S" transform="matrix(1 0 0 1 1701.85 696)"><path d="M1464.55758 4273.330154 Q1301.315058 4273.330154 1186.4729519999999 4158.488048 Q1071.630846 4043.6459419999996 1071.630846 3880.4034199999996 V1634.12042 H818.361846 V1241.19842 H1791.819 V987.9294199999999 H2750.558148 V1241.19842 H3726.2781539999996 V1634.12042 H3473.009154 V3878.348864 Q3473.009154 4045.066142 3358.167048 4159.198148 Q3243.324942 4273.330154 3080.08242 4273.330154 H1464.55758 Z M3080.08242 1634.12042 H1464.55758 V3880.4034199999996 Q1464.55758 3880.4034199999996 1464.55758 3880.4034199999996 Q1464.55758 3880.4034199999996 1464.55758 3880.4034199999996 H3080.08242 Q3080.08242 3880.4034199999996 3080.08242 3880.4034199999996 Q3080.08242 3880.4034199999996 3080.08242 3880.4034199999996 V1634.12042 Z M1797.480864 3552.0105739999995 H2164.3658640000003 V1961.386574 H1797.480864 V3552.0105739999995 Z M2380.274136 3552.0105739999995 H2747.1591359999998 V1961.386574 H2380.274136 V3552.0105739999995 Z"/></g><g id="Regular-S" transform="matrix(1 0 0 1 1405.73 696)"><path d="M1477.008 4234.838000000001 Q1336.4082 4234.838000000001 1236.2840999999999 4134.713900000001 Q1136.16 4034.5898 1136.16 3893.99 V1621.67 H908.928 V1280.8220000000001 H1817.856 V1053.5900000000001 H2726.784 V1280.8220000000001 H3635.712 V1621.67 H3408.48 V3891.935444 Q3408.48 4036.0099999999998 3308.3559 4135.424 Q3208.2318 4234.838000000001 3067.632 4234.838000000001 H1477.008 Z M3067.632 1621.67 H1477.008 V3893.99 Q1477.008 3893.99 1477.008 3893.99 Q1477.008 3893.99 1477.008 3893.99 H3067.632 Q3067.632 3893.99 3067.632 3893.99 Q3067.632 3893.99 3067.632 3893.99 V1621.67 Z M1817.856 3553.142 H2158.704 V1962.518 H1817.856 V3553.142 Z M2385.936 3553.142 H2726.784 V1962.518 H2385.936 V3553.142 Z"/></g><g id="Light-S" transform="matrix(1 0 0 1 1109.75 696)"><path d="M1535.278806 4140.153266 Q1409.245524 4140.153266 1320.047496 4050.950504 Q1230.8447339999998 3961.7524759999997 1230.8447339999998 3835.719194 V1621.67 H1003.612734 V1375.506734 H1817.856 V1170.1268780000003 H2726.784 V1375.506734 H3541.027266 V1621.67 H3313.795266 V3833.6646379999997 Q3313.795266 3964.995266 3225.506166 4052.574266 Q3137.2170659999997 4140.153266 3009.361194 4140.153266 H1535.278806 Z M3067.632 1621.67 H1477.008 V3835.719194 Q1477.008 3861.211784 1493.397108 3877.600892 Q1509.786216 3893.99 1535.278806 3893.99 H3009.361194 Q3031.213338 3893.99 3049.425036 3875.783036 Q3067.632 3857.5713379999997 3067.632 3835.719194 V1621.67 Z M1894.33377 3553.142 H2140.4970359999998 V1962.518 H1894.33377 V3553.142 Z M2404.142964 3553.142 H2650.30623 V1962.518 H2404.142964 V3553.142 Z"/></g><g id="Thin-S" transform="matrix(1 0 0 1 814.015 696)"><path d="M1593.53541 4045.4779999999996 Q1482.0686460000002 4045.4779999999996 1403.791956 3967.206044 Q1325.52 3888.929354 1325.52 3777.4625899999996 V1621.67 H1098.288 V1470.182 H1817.856 V1286.6448200000002 H2726.784 V1470.182 H3446.352 V1621.67 H3219.12 V3775.408034 Q3219.12 3893.99 3142.6659 3969.734 Q3066.2118 4045.4779999999996 2951.10459 4045.4779999999996 H1593.53541 Z M3067.632 1621.67 H1477.008 V3777.4625899999996 Q1477.008 3828.4430359999997 1509.781482 3861.2165179999997 Q1542.554964 3893.99 1593.53541 3893.99 H2951.10459 Q2994.79941 3893.99 3031.218072 3857.576072 Q3067.632 3821.15741 3067.632 3777.4625899999996 V1621.67 Z M1970.797338 3553.142 H2122.290072 V1962.518 H1970.797338 V3553.142 Z M2422.349928 3553.142 H2573.842662 V1962.518 H2422.349928 V3553.142 Z"/></g><g id="Ultralight-S" transform="matrix(1 0 0 1 517.792 696)"><path d="M1628.496 3988.6699999999996 Q1525.7682 3988.6699999999996 1454.0481 3916.9499 Q1382.328 3845.2298 1382.328 3742.502 V1621.67 H1155.096 V1526.99 H1817.856 V1356.566 H2726.784 V1526.99 H3389.544 V1621.67 H3162.312 V3740.447444 Q3162.312 3851.384 3092.9589 3920.027 Q3023.6058000000003 3988.6699999999996 2916.144 3988.6699999999996 H1628.496 Z M3067.632 1621.67 H1477.008 V3742.502 Q1477.008 3808.778 1519.614 3851.384 Q1562.22 3893.99 1628.496 3893.99 H2916.144 Q2972.9519999999998 3893.99 3020.292 3846.6499999999996 Q3067.632 3799.31 3067.632 3742.502 V1621.67 Z M2016.684 3553.142 H2111.364 V1962.518 H2016.684 V3553.142 Z M2433.276 3553.142 H2527.956 V1962.518 H2433.276 V3553.142 Z"/></g></g></svg>