<svg xmlns="http://www.w3.org/2000/svg" version="1.1" width="3300" height="2000"><g id="Notes"><style>
    text {
      font-family: monospace;
      text-anchor: middle;
    }
    text.emphasis {
      font-weight:bold;
    }
    text.lanchor {
      text-anchor: start;
    }
  </style><rect height="2200" id="artboard" fill="white" width="3300" x="0" y="0"/><line id="" style="fill:none;stroke:black;stroke-width:0.5;" x1="263" x2="3036" y1="292" y2="292"/><text class="lanchor emphasis" transform="matrix(1 0 0 1 263 322)">Weight/Scale Variations</text><text transform="matrix(1 0 0 1 559.711 322)">Ultralight</text><text transform="matrix(1 0 0 1 856.422 322)">Thin</text><text transform="matrix(1 0 0 1 1153.13 322)">Light</text><text transform="matrix(1 0 0 1 1449.84 322)">Regular</text><text transform="matrix(1 0 0 1 1746.56 322)">Medium</text><text transform="matrix(1 0 0 1 2043.27 322)">Semibold</text><text transform="matrix(1 0 0 1 2339.98 322)">Bold</text><text transform="matrix(1 0 0 1 2636.69 322)">Heavy</text><text transform="matrix(1 0 0 1 2933.4 322)">Black</text><text id="template-version" style="text-anchor: end;" transform="matrix(1 0 0 1 3036 1933)">Template v.1.0</text><text class="lanchor" transform="matrix(1 0 0 1 263 726)">Small</text><text class="lanchor" transform="matrix(1 0 0 1 263 1156)">Medium</text><text class="lanchor" transform="matrix(1 0 0 1 263 1586)">Large</text></g><g id="Guides"><g id="H-reference" style="fill:#27AAE1;stroke:none;" transform="matrix(1 0 0 1 339 696)"><path d="M 54.9316 0 L 57.666 0 L 30.5664 -70.459 L 28.0762 -70.459 L 0.976562 0 L 3.66211 0 L 12.9395 -24.4629 L 45.7031 -24.4629 Z M 29.1992 -67.0898 L 29.4434 -67.0898 L 44.8242 -26.709 L 13.8184 -26.709 Z"/></g><line id="Baseline-S" style="fill:none;stroke:#27AAE1;opacity:1;stroke-width:0.577;" x1="263" x2="3036" y1="696" y2="696"/><line id="Capline-S" style="fill:none;stroke:#27AAE1;opacity:1;stroke-width:0.577;" x1="263" x2="3036" y1="625.541" y2="625.541"/><g id="H-reference" style="fill:#27AAE1;stroke:none;" transform="matrix(1 0 0 1 339 1126)"><path d="M 54.9316 0 L 57.666 0 L 30.5664 -70.459 L 28.0762 -70.459 L 0.976562 0 L 3.66211 0 L 12.9395 -24.4629 L 45.7031 -24.4629 Z M 29.1992 -67.0898 L 29.4434 -67.0898 L 44.8242 -26.709 L 13.8184 -26.709 Z"/></g><line id="Baseline-M" style="fill:none;stroke:#27AAE1;opacity:1;stroke-width:0.577;" x1="263" x2="3036" y1="1126" y2="1126"/><line id="Capline-M" style="fill:none;stroke:#27AAE1;opacity:1;stroke-width:0.577;" x1="263" x2="3036" y1="1055.54" y2="1055.54"/><g id="H-reference" style="fill:#27AAE1;stroke:none;" transform="matrix(1 0 0 1 339 1556)"><path d="M 54.9316 0 L 57.666 0 L 30.5664 -70.459 L 28.0762 -70.459 L 0.976562 0 L 3.66211 0 L 12.9395 -24.4629 L 45.7031 -24.4629 Z M 29.1992 -67.0898 L 29.4434 -67.0898 L 44.8242 -26.709 L 13.8184 -26.709 Z"/></g><line id="Baseline-L" style="fill:none;stroke:#27AAE1;opacity:1;stroke-width:0.577;" x1="263" x2="3036" y1="1556" y2="1556"/><line id="Capline-L" style="fill:none;stroke:#27AAE1;opacity:1;stroke-width:0.577;" x1="263" x2="3036" y1="1485.54" y2="1485.54"/><rect height="119.336" id="left-margin" style="fill:darkred;stroke:none;opacity:0.4;" width="12.4512" x="1394.06" y="1030.79"/><rect height="119.336" id="right-margin" style="fill:darkgreen;stroke:none;opacity:0.4;" width="12.4512" x="1502.5112" y="1030.79"/><rect x="1406.5112" y="1045" width="96" height="96" fill="none" stroke="blue" stroke-dasharray="5"/><rect x="1394.06" y="1030.79" width="120.9024" height="119.336" fill="none" stroke="blue"/></g><g id="Symbols"><g id="Bold-L" transform="matrix(1 0 0 1 2266 1556)"><path d="M603.075 2715.695 H706.275 L2109.15 1306.37 L2005.95 1203.17 L603.075 2612.495 V2715.695 Z M2570.3250000000003 1170.92  2144.625 745.22  2212.35 674.27 Q2302.65 583.97 2426.8125 582.3575000000001 Q2550.975 580.745 2641.275 667.82 L2699.3250000000003 725.87 Q2773.5 796.82 2765.4375 890.345 Q2757.375 983.87 2692.875 1048.37 L2570.3250000000003 1170.92 Z M2438.1 1303.145  796.575 2944.67 H370.875 V2518.97 L2009.175 880.6700000000001 L2438.1 1303.145 Z M2060.775 1254.77  2005.95 1203.17  2109.15 1306.37  2060.775 1254.77 Z"/></g><g id="Semibold-L" transform="matrix(1 0 0 1 1970.27 1556)"><path d="M593.2613249999999 2714.292125 H713.28615 L2127.3777 1296.556325 L2007.3528749999998 1176.5315 L593.2613249999999 2594.2673 V2714.292125 Z M2566.1196 1159.70345  2146.0278749999998 739.6117250000001  2243.197125 640.62035 Q2318.07195 565.7423000000001 2423.3069250000003 564.83285 Q2528.5419 563.920175 2603.41995 636.972875 L2697.922125 731.4782749999999 Q2763.686325 795.417125 2759.1294 883.3338500000001 Q2754.56925 971.2505749999999 2694.2778749999998 1031.5451750000002 L2566.1196 1159.70345 Z M2432.491725 1293.331325  797.977875 2927.845175 H377.88615000000004 V2507.75345 L2010.577875 875.0617250000001 L2432.491725 1293.331325 Z M2069.189025 1236.5423  2007.3528749999998 1176.5315  2127.3777 1296.556325  2069.189025 1236.5423 Z"/></g><g id="Medium-L" transform="matrix(1 0 0 1 1674.31 1556)"><path d="M585.8986500000001 2713.240775 H718.5429 L2141.048475 1289.1936500000002 L2008.404225 1156.5493999999999 L585.8986500000001 2580.596525 V2713.240775 Z M2562.962325 1151.289425  2147.079225 735.406325  2266.333275 615.378275 Q2329.64325 552.0715250000001 2420.67855 551.684525 Q2511.71385 551.30075 2575.023825 613.836725 L2696.8707750000003 735.683675 Q2756.32365 794.365775 2754.3951 878.0771000000001 Q2752.46655 961.7851999999999 2695.329225 1018.92575 L2562.962325 1151.289425 Z M2428.286325 1285.9686499999998  799.029225 2915.22575 H383.1429 V2499.339425 L2011.629225 870.856325 L2428.286325 1285.9686499999998 Z M2075.4971250000003 1222.871525  2008.404225 1156.5493999999999  2141.048475 1289.1936500000002  2075.4971250000003 1222.871525 Z"/></g><g id="Regular-L" transform="matrix(1 0 0 1 1378.56 1556)"><path d="M580.5 2712.47 H722.4 L2151.0750000000003 1283.795 L2009.175 1141.895 L580.5 2570.57 V2712.47 Z M2560.65 1145.12  2147.85 732.32  2283.3 596.87 Q2338.125 542.0450000000001 2418.75 542.0450000000001 Q2499.375 542.0450000000001 2554.2000000000003 596.87 L2696.1 738.77 Q2750.925 793.595 2750.925 874.22 Q2750.925 954.8450000000001 2696.1 1009.67 L2560.65 1145.12 Z M2425.2000000000003 1280.5700000000002  799.8000000000001 2905.97 H387.0 V2493.17 L2012.4 867.77 L2425.2000000000003 1280.5700000000002 Z"/></g><g id="Light-L" transform="matrix(1 0 0 1 1082.77 1556)"><path d="M617.713275 2695.103375 H748.45155 L2174.6433 1270.150025 L2042.666625 1138.17335 L617.713275 2564.368325 V2695.103375 Z M2484.9818250000003 1164.9666499999998  2147.85 827.8380500000001  2283.3 692.38805 Q2325.72165 649.9664 2387.1192 649.9664 Q2448.5167500000002 649.9664 2490.935175 692.38805 L2620.431825 821.881475 Q2662.8502500000004 864.303125 2662.2310500000003 925.7006750000002 Q2661.6118500000002 987.0982250000001 2619.1902 1030.7582750000001 L2484.9818250000003 1164.9666499999998 Z M2381.781825 1266.925025  807.2433 2841.466775 H471.35310000000004 V2505.57335 L2045.891625 931.0348250000001 L2381.781825 1266.925025 Z M2108.656575 1202.921675  2042.666625 1138.17335  2174.6433 1270.150025  2108.656575 1202.921675 Z"/></g><g id="Thin-L" transform="matrix(1 0 0 1 787.282 1556)"><path d="M654.923325 2677.739975 H774.49665 L2198.208375 1256.5082750000001 L2076.155025 1134.4517 L654.923325 2558.16665 V2677.739975 Z M2409.323325 1184.8132999999998  2147.85 923.33675  2283.3 787.8867500000001 Q2313.3183 757.871675 2355.491625 757.871675 Q2397.66495 757.871675 2427.680025 787.8867500000001 L2544.773325 904.9800500000001 Q2574.791625 934.99835 2573.55 977.1716749999999 Q2572.3116 1019.3450000000001 2542.2933000000003 1051.8433249999998 L2409.323325 1184.8132999999998 Z M2338.373325 1253.2832749999998  814.6833750000001 2776.97 H555.690075 V2517.9767 L2079.380025 994.289975 L2338.373325 1253.2832749999998 Z M2137.1817 1192.9983499999998  2076.155025 1134.4517  2198.208375 1256.5082750000001  2137.1817 1192.9983499999998 Z"/></g><g id="Ultralight-L" transform="matrix(1 0 0 1 491.205 1556)"><path d="M677.25 2667.32 H790.125 L2212.35 1248.3200000000002 L2096.25 1132.2200000000003 L677.25 2554.445 V2667.32 Z M2363.925 1196.7200000000003  2147.85 980.6450000000001  2283.3 845.195 Q2305.875 822.62 2336.5125000000003 822.62 Q2367.15 822.62 2389.725 845.195 L2499.375 954.8450000000001 Q2521.9500000000003 977.42 2520.3375 1008.0575 Q2518.725 1038.6950000000002 2496.15 1064.495 L2363.925 1196.7200000000003 Z M2312.3250000000003 1245.0950000000003  819.15 2738.27 H606.3000000000001 V2525.42 L2099.475 1032.245 L2312.3250000000003 1245.0950000000003 Z M2154.3 1187.045  2096.25 1132.2200000000003  2212.35 1248.3200000000002  2154.3 1187.045 Z"/></g><g id="Bold-M" transform="matrix(1 0 0 1 2281.8 1126)"><path d="M1045.0 4189.77 H1245.0 L2920.0 2509.77 L2720.0 2309.77 L1045.0 3989.77 V4189.77 Z M3880.0 2224.77  3005.0 1354.77  3145.0 1209.77 Q3330.0 1019.77 3587.5 1017.27 Q3845.0 1014.77 4035.0 1199.77 L4140.0 1304.77 Q4295.0 1449.77 4285.0 1639.77 Q4275.0 1829.77 4140.0 1964.77 L3880.0 2224.77 Z M3595.0 2514.77  1445.0 4664.77 H565.0 V3789.77 L2715.0 1639.77 L3595.0 2514.77 Z M2825.0 2409.77  2720.0 2309.77  2920.0 2509.77  2825.0 2409.77 Z"/></g><g id="Semibold-M" transform="matrix(1 0 0 1 1985.97 1126)"><path d="M1025.435 4187.595000000001 H1260.2150000000001 L2956.955 2488.03 L2722.1749999999997 2253.25 L1025.435 3952.815 V4187.595000000001 Z M3871.305 2200.86  3007.1749999999997 1343.9  3208.04 1140.21 Q3362.6049999999996 982.815 3580.98 981.405 Q3799.35 979.99 3956.7450000000003 1134.5549999999998 L4137.825000000001 1315.6399999999999 Q4275.4349999999995 1447.595 4271.955 1625.6399999999999 Q4268.4800000000005 1803.685 4142.174999999999 1929.9899999999998 L3871.305 2200.86 Z M3584.13 2493.03  1447.175 4629.990000000001 H580.215 V3765.8599999999997 L2717.1749999999997 1628.9 L3584.13 2493.03 Z M2842.39 2370.64  2722.1749999999997 2253.25  2956.955 2488.03  2842.39 2370.64 Z"/></g><g id="Medium-M" transform="matrix(1 0 0 1 1689.91 1126)"><path d="M1010.76 4185.965 H1271.6299999999999 L2984.6749999999997 2471.725 L2723.805 2210.86 L1010.76 3925.0950000000003 V4185.965 Z M3864.785 2182.92  3008.805 1335.75  3255.3250000000003 1088.03 Q3387.065 955.095 3576.085 954.5 Q3765.11 953.8999999999999 3898.045 1085.64 L4136.195 1323.79 Q4260.76 1445.965 4262.174999999999 1615.04 Q4263.585 1784.12 4143.805 1903.9 L3864.785 2182.92 Z M3575.98 2476.725  1448.805 4603.900000000001 H591.63 V3747.92 L2718.805 1620.75 L3575.98 2476.725 Z M2855.435 2341.29  2723.805 2210.86  2984.6749999999997 2471.725  2855.435 2341.29 Z"/></g><g id="Regular-M" transform="matrix(1 0 0 1 1394.06 1126)"><path d="M1000.0 4184.77 H1280.0 L3005.0 2459.77 L2725.0 2179.77 L1000.0 3904.77 V4184.77 Z M3860.0 2169.77  3010.0 1329.77  3290.0 1049.77 Q3405.0 934.77 3572.5 934.77 Q3740.0 934.77 3855.0 1049.77 L4135.0 1329.77 Q4250.0 1444.77 4255.0 1607.27 Q4260.0 1769.77 4145.0 1884.77 L3860.0 2169.77 Z M3570.0 2464.77  1450.0 4584.77 H600.0 V3734.77 L2720.0 1614.77 L3570.0 2464.77 Z"/></g><g id="Light-M" transform="matrix(1 0 0 1 1098.18 1126)"><path d="M1030.77 4184.77 H1278.075 L3130.0099999999998 2332.8399999999997 L2882.7050000000004 2085.5299999999997 L1030.77 3937.4649999999997 V4184.77 Z M3771.53 2115.92  3096.545 1447.085  3357.3149999999996 1186.32 Q3445.39 1098.245 3571.54 1098.245 Q3697.69 1098.245 3785.7650000000003 1186.32 L4029.2250000000004 1429.7749999999999 Q4117.3 1517.85 4120.375 1640.925 Q4123.450000000001 1764.0 4035.375 1852.075 L3771.53 2115.92 Z M3554.615 2335.915  1405.765 4484.765 H730.78 V3809.775 L2879.625 1660.925 L3554.615 2335.915 Z M3005.3949999999995 2208.225  2882.7050000000004 2085.5299999999997  3130.0099999999998 2332.8399999999997  3005.3949999999995 2208.225 Z"/></g><g id="Thin-M" transform="matrix(1 0 0 1 802.565 1126)"><path d="M1061.54 4184.77 H1276.155 L3255.0 2205.9249999999997 L3040.385 1991.31 L1061.54 3970.155 V4184.77 Z M3683.08 2062.08  3183.075 1564.385  3424.615 1322.845 Q3485.77 1261.69 3570.575 1261.69 Q3655.385 1261.69 3716.54 1322.845 L3923.465 1529.77 Q3984.615 1590.925 3985.77 1674.575 Q3986.925 1758.23 3925.77 1819.385 L3683.08 2062.08 Z M3539.23 2207.08  1361.54 4384.77 H861.535 V3884.77 L3039.23 1707.075 L3539.23 2207.08 Z M3145.77 2096.695  3040.385 1991.31  3255.0 2205.9249999999997  3145.77 2096.695 Z"/></g><g id="Ultralight-M" transform="matrix(1 0 0 1 506.415 1126)"><path d="M1080.0 4184.77 H1275.0 L3330.0 2129.77 L3135.0 1934.77 L1080.0 3989.77 V4184.77 Z M3630.0 2029.77  3235.0 1634.77  3465.0 1404.77 Q3510.0 1359.77 3570.0 1359.77 Q3630.0 1359.77 3675.0 1404.77 L3860.0 1589.77 Q3905.0 1634.77 3905.0 1694.77 Q3905.0 1754.77 3860.0 1799.77 L3630.0 2029.77 Z M3530.0 2129.77  1335.0 4324.77 H940.0 V3929.77 L3135.0 1734.77 L3530.0 2129.77 Z"/></g><g id="Bold-S" transform="matrix(1 0 0 1 2294.23 696)"><path d="M1008.342 3955.5319999999997 H1211.904 L2755.188 2407.5139999999997 L2551.626 2203.9519999999998 L1008.342 3751.97 V3955.5319999999997 Z M3697.254 2137.676  2826.198 1261.886  2925.612 1157.738 Q3110.238 968.3780000000002 3358.773 966.011 Q3607.308 963.644 3796.668 1148.27 L3915.018 1266.6200000000001 Q4066.506 1408.64 4052.304 1602.7340000000002 Q4038.102 1796.828 3905.55 1929.38 L3697.254 2137.676 Z M3422.682 2412.248  1410.732 4424.198 H534.942 V3553.142 L2546.892 1541.192 L3422.682 2412.248 Z M2660.508 2308.1  2551.626 2203.9519999999998  2755.188 2407.5139999999997  2660.508 2308.1 Z"/></g><g id="Semibold-S" transform="matrix(1 0 0 1 1998.1 696)"><path d="M989.817858 3953.47271 H1226.309562 L2790.176994 2386.930568 L2553.68529 2150.4388639999997 L989.817858 3716.981006 V3953.47271 Z M3689.021574 2115.038012  2828.2572899999996 1251.5942840000002  2985.2982719999995 1091.878592 Q3141.108414 933.3890060000001 3352.5998640000003 932.054018 Q3564.08658 930.7142960000001 3722.5761660000003 1086.524438 L3912.9587100000003 1276.911716 Q4047.981858 1406.58071 4039.9529939999998 1589.355716 Q4031.928864 1772.130722 3907.60929 1896.450296 L3689.021574 2115.038012 Z M3412.390284 2391.664568  1412.7912900000001 4391.268296 H549.347562 V3530.5040119999994 L2548.9512899999995 1530.900284 L3412.390284 2391.664568 Z M2676.972852 2271.051716  2553.68529 2150.4388639999997  2790.176994 2386.930568  2676.972852 2271.051716 Z"/></g><g id="Medium-S" transform="matrix(1 0 0 1 1701.85 696)"><path d="M975.9235679999999 3951.929426 H1237.1172840000002 L2816.4222899999995 2371.4929939999997 L2555.2285739999998 2110.304012 L975.9235679999999 3690.73571 V3951.929426 Z M3682.848438 2098.05242  2829.800574 1243.8778640000003  3030.0677100000003 1042.474568 Q3164.267142 907.14371 3347.965278 906.5803639999999 Q3531.668148 906.0122839999999 3666.999006 1040.211716 L3911.415426 1284.628136 Q4034.0875680000004 1405.0374259999999 4030.6932899999997 1579.319636 Q4027.294278 1753.6065800000001 3909.1525739999997 1871.7482840000002 L3682.848438 2098.05242 Z M3404.6738640000003 2376.2269939999996  1414.3345740000002 4366.566284 H560.1552839999999 V3513.51842 L2550.494574 1523.183864 L3404.6738640000003 2376.2269939999996 Z M2689.3238579999997 2243.2631359999996  2555.2285739999998 2110.304012  2816.4222899999995 2371.4929939999997  2689.3238579999997 2243.2631359999996 Z"/></g><g id="Regular-S" transform="matrix(1 0 0 1 1405.73 696)"><path d="M965.736 3950.798 H1245.042 L2835.666 2360.174 L2556.36 2080.868 L965.736 3671.4919999999997 V3950.798 Z M3678.318 2085.602  2830.932 1238.2160000000001  3062.898 1006.25 Q3181.248 887.9000000000001 3344.571 887.9000000000001 Q3507.894 887.9000000000001 3626.244 1006.25 L3910.284 1290.29 Q4023.9 1403.906 4023.9 1571.963 Q4023.9 1740.02 3910.284 1853.636 L3678.318 2085.602 Z M3399.012 2364.908  1415.466 4348.454000000001 H568.08 V3501.0679999999998 L2551.626 1517.5220000000002 L3399.012 2364.908 Z"/></g><g id="Light-S" transform="matrix(1 0 0 1 1109.75 696)"><path d="M994.8690359999999 3950.798 H1243.2194100000002 L2954.025468 2239.9966759999998 L2705.675094 1991.6415679999998 L994.8690359999999 3702.4476259999997 V3950.798 Z M3594.5546040000004 2034.61682  2912.872806 1349.2898420000001  3126.631842 1135.53554 Q3219.489252 1042.67813 3343.662072 1042.67813 Q3467.834892 1042.67813 3560.692302 1135.53554 L3810.13623 1384.974734 Q3898.25964 1473.098144 3896.43705 1603.827554 Q3894.6144600000002 1734.556964 3806.49105 1822.680374 L3594.5546040000004 2034.61682 Z M3384.445482 2242.908086  1373.584302 4253.769266 H691.902504 V3572.0827339999996 L2702.75895 1561.221554 L3384.445482 2242.908086 Z M2831.305986 2117.277194  2705.675094 1991.6415679999998  2954.025468 2239.9966759999998  2831.305986 2117.277194 Z"/></g><g id="Thin-S" transform="matrix(1 0 0 1 814.015 696)"><path d="M1024.002072 3950.798 H1241.401554 L3072.366 2119.833554 L2854.966518 1902.434072 L1024.002072 3733.398518 V3950.798 Z M3510.810144 1983.641108  2994.79941 1460.349482  3190.351482 1264.7974100000001 Q3257.721036 1197.427856 3342.74841 1197.427856 Q3427.780518 1197.427856 3495.150072 1264.7974100000001 L3710.002662 1479.65 Q3772.633482 1542.285554 3768.993036 1635.687374 Q3765.35259 1729.093928 3702.717036 1791.729482 L3510.810144 1983.641108 Z M3369.878964 2120.927108  1331.712072 4159.094 H815.701338 V3643.0879999999997 L2853.872964 1604.9163740000001 L3369.878964 2120.927108 Z M2964.213036 2011.6805900000002  2854.966518 1902.434072  3072.366 2119.833554  2964.213036 2011.6805900000002 Z"/></g><g id="Ultralight-S" transform="matrix(1 0 0 1 517.792 696)"><path d="M1041.48 3950.798 H1240.308 L3143.376 2047.7300000000002 L2944.548 1848.902 L1041.48 3751.97 V3950.798 Z M3460.554 1953.05  3043.962 1526.99  3228.588 1342.364 Q3280.662 1290.29 3342.204 1290.29 Q3403.746 1290.29 3455.82 1342.364 L3649.914 1536.458 Q3697.254 1583.798 3692.52 1654.808 Q3687.786 1725.818 3640.446 1773.1580000000001 L3460.554 1953.05 Z M3361.14 2047.7300000000002  1306.584 4102.286 H889.992 V3685.694 L2944.548 1631.1380000000001 L3361.14 2047.7300000000002 Z"/></g></g></svg>